<svg version="1.1" id="Layer_1" xmlns="http://www.w3.org/2000/svg" xmlns:xlink="http://www.w3.org/1999/xlink" x="0px" y="0px"
	 width="100%" viewBox="0 0 1024 1024" enable-background="new 0 0 1024 1024" xml:space="preserve">
<path fill="#000000" opacity="1.000000" stroke="none" 
	d="
M375.785645,631.260376 
	C383.215912,641.100403 387.811035,651.535950 387.428864,663.828003 
	C386.781677,684.647034 398.552917,697.488464 415.487915,706.906921 
	C433.030609,716.663391 452.166809,721.666260 471.643188,725.592957 
	C486.190002,728.525757 500.908783,730.561584 515.739014,730.252991 
	C531.070557,729.933838 546.159729,727.088013 561.098694,723.649170 
	C579.977234,719.303528 598.547852,714.095886 615.185913,703.680359 
	C629.334473,694.823303 638.465454,683.059998 638.030762,665.386414 
	C637.558289,646.173645 646.805664,631.608337 660.980408,619.740906 
	C668.771423,613.218140 677.113220,607.454529 686.864319,604.242432 
	C688.150513,605.548340 687.389587,606.656067 686.791748,607.538696 
	C681.000977,616.087830 679.288391,625.638672 680.202026,635.677002 
	C681.993958,655.363586 673.613342,670.640625 659.531006,683.247986 
	C651.687195,690.270325 642.174072,694.978149 633.154785,700.322876 
	C627.725220,703.540405 622.228210,706.644104 616.867981,710.070496 
	C625.785278,708.047852 634.073425,704.210205 642.636230,701.183105 
	C656.109192,696.420166 669.763184,693.237183 684.228577,695.624573 
	C691.910645,696.892456 699.072327,699.545288 705.719604,703.399048 
	C716.618469,709.717773 728.091614,713.627319 740.820740,713.280212 
	C741.462280,713.262756 742.111755,713.408264 742.750488,713.518921 
	C742.877380,713.540955 742.971741,713.750977 743.331604,714.156433 
	C740.675049,717.632324 736.638306,719.345459 733.027222,721.389160 
	C720.002502,728.760315 706.288025,733.971436 691.030396,734.509644 
	C680.005249,734.898682 669.365051,732.961609 660.629456,726.551025 
	C643.832886,714.224915 626.062744,714.476257 607.354675,719.985596 
	C588.251953,725.611023 569.260498,731.643005 549.620117,735.966187 
	C577.772400,741.985962 603.734558,752.669922 627.817749,770.436768 
	C618.493530,774.051270 609.884155,776.259644 601.249329,778.353821 
	C599.166321,778.859009 597.941833,777.029358 596.599915,775.859619 
	C576.051636,757.945496 552.804565,745.720398 525.495850,742.022766 
	C501.494873,738.772949 479.169678,744.163208 458.037140,755.328796 
	C446.955597,761.183838 436.599457,768.159546 427.316895,776.634583 
	C426.022064,777.816772 424.752899,778.888916 422.917969,778.336731 
	C414.841400,775.905945 406.535736,774.188354 397.710449,770.631531 
	C420.882812,753.172241 446.216248,742.705688 474.851807,736.047241 
	C463.485260,733.009338 453.600342,730.358398 443.710388,727.726440 
	C429.895935,724.050110 416.530487,718.652588 402.245880,716.784851 
	C391.581207,715.390442 381.116760,716.027954 371.968231,722.301758 
	C345.044800,740.764954 318.549957,736.510559 292.182098,721.205383 
	C288.794403,719.238953 285.198090,717.484619 281.493652,713.792358 
	C285.192841,713.454346 287.892914,713.033264 290.598724,712.992493 
	C299.326019,712.860962 307.609741,710.508179 314.849854,706.044861 
	C337.906250,691.831299 361.485779,692.264587 385.655121,702.341431 
	C393.761383,705.721130 401.953552,708.812622 410.940765,711.476685 
	C398.070587,703.622375 385.512543,696.441040 373.466644,688.484436 
	C358.631744,678.685486 347.836151,665.769653 345.376160,647.366516 
	C345.113281,645.400024 344.960480,643.345093 345.223480,641.394104 
	C346.838959,629.411133 344.759674,618.187195 338.710175,607.699463 
	C338.230469,606.867798 337.547272,606.023132 338.191559,603.933472 
	C352.629669,610.448181 365.442810,618.763855 375.785645,631.260376 
z"/>
<path fill="#000000" opacity="1.000000" stroke="none" 
	d="
M616.108643,418.804810 
	C598.527710,389.535736 581.133118,360.580841 563.892273,331.881927 
	C565.327454,329.479950 567.145142,329.979309 568.724548,329.971771 
	C575.056702,329.941528 581.395325,330.172516 587.719421,329.954681 
	C591.541809,329.822968 593.783569,331.346466 595.745056,334.557159 
	C613.983459,364.411530 632.384338,394.166626 650.684265,423.983521 
	C669.245056,454.225616 687.750916,484.501465 706.253235,514.779358 
	C707.169128,516.278015 708.644897,517.608765 708.168274,520.397339 
	C664.274353,520.397339 620.318298,520.397339 575.752319,520.397339 
	C580.853027,512.272156 585.560425,504.728638 590.323975,497.220612 
	C591.366699,495.577057 593.187012,495.801178 594.840759,495.663879 
	C614.138672,494.061340 633.474487,495.247620 652.788757,494.868683 
	C655.730469,494.810974 658.674316,494.860626 662.684692,494.860626 
	C646.825867,468.967529 631.560425,444.043213 616.108643,418.804810 
z"/>
<path fill="#000000" opacity="1.000000" stroke="none" 
	d="
M394.851318,427.073639 
	C367.728607,382.752930 340.797729,338.741302 313.177185,293.602600 
	C356.969269,293.602600 399.630188,293.602600 443.306244,293.602600 
	C439.910339,299.358032 436.393341,304.220551 434.031738,309.591095 
	C430.873779,316.772583 425.896881,318.614532 418.382202,318.401367 
	C400.737518,317.900787 383.067505,318.273926 365.407928,318.345825 
	C363.646973,318.352997 361.761261,317.818909 359.548309,319.398163 
	C393.801697,374.590881 428.044800,429.767029 463.106415,486.262085 
	C454.106750,486.262085 446.673676,485.890045 439.297699,486.378876 
	C433.310822,486.775635 429.783691,484.963562 426.637695,479.505737 
	C416.493927,461.907898 405.629669,444.725342 394.851318,427.073639 
z"/>
<path fill="#000000" opacity="1.000000" stroke="none" 
	d="
M640.000000,292.887543 
	C663.071838,292.886993 685.643677,292.886993 708.215515,292.886993 
	C708.540894,293.393494 708.866211,293.899994 709.191528,294.406525 
	C687.488708,329.926636 665.785950,365.446747 643.488586,401.939911 
	C639.929749,395.996002 637.686829,390.667267 634.064697,386.552704 
	C627.859741,379.504089 629.062927,373.738770 634.007751,366.466248 
	C642.896790,353.392609 650.751953,339.615417 659.012756,326.116089 
	C660.133667,324.284363 661.476318,322.537567 661.975708,319.339661 
	C599.221191,319.339661 536.642151,319.339661 474.463318,319.339661 
	C473.487946,317.017548 474.505646,316.206116 475.123291,315.263519 
	C477.771118,311.222473 481.141632,307.475281 482.921570,303.083130 
	C486.483765,294.293060 492.985107,292.808136 501.507965,292.851379 
	C547.504211,293.084686 593.502441,292.917297 640.000000,292.887543 
z"/>
<path fill="#000000" opacity="1.000000" stroke="none" 
	d="
M318.762146,510.790222 
	C338.148102,478.605499 357.338165,446.725586 377.127411,413.850250 
	C380.890045,423.759064 386.282593,431.700562 390.801025,440.127289 
	C391.957153,442.283508 390.503815,443.949341 389.483032,445.634888 
	C380.006989,461.282227 370.518005,476.921753 360.626282,493.233917 
	C422.760773,493.233917 484.443542,493.233917 547.089417,493.233917 
	C542.057068,502.007904 537.605408,509.925903 532.257263,517.280762 
	C530.599915,519.559998 527.666138,518.860718 525.226501,518.871765 
	C490.086456,519.030823 454.946259,519.188049 419.805908,519.261536 
	C386.830048,519.330444 353.854004,519.309082 320.878021,519.289429 
	C318.943939,519.288269 316.894318,519.819885 314.884155,518.467407 
	C315.032776,515.493774 317.465820,513.603943 318.762146,510.790222 
z"/>
<path fill="#000000" opacity="1.000000" stroke="none" 
	d="
M413.833893,390.170441 
	C411.187378,385.894379 409.071747,381.662048 406.198914,378.028290 
	C403.076294,374.078552 404.172302,370.823090 406.416138,367.184052 
	C413.320740,355.986084 420.228516,344.787933 426.956268,333.483490 
	C453.954926,288.118408 480.883789,242.711823 507.852234,197.328766 
	C508.859192,195.634262 510.008972,194.024643 511.779449,191.329178 
	C531.499451,223.673737 550.782776,255.302094 570.866028,288.242554 
	C559.943970,288.242554 550.849243,288.284515 541.755432,288.214417 
	C539.345886,288.195831 538.602966,286.020660 537.582825,284.349792 
	C529.858948,271.698669 522.160950,259.031708 514.437256,246.380402 
	C513.763000,245.275970 513.391174,243.907684 511.370239,243.032593 
	C481.198425,294.753113 450.566986,346.291199 419.221527,397.506866 
	C415.993408,395.462738 415.478882,392.649902 413.833893,390.170441 
z"/>
<path fill="#000000" opacity="1.000000" stroke="none" 
	d="
M554.925476,492.964874 
	C570.625549,466.915497 586.150818,441.186646 602.170105,414.639130 
	C607.031189,423.818909 611.354675,431.998383 615.694092,440.169312 
	C617.062134,442.745270 615.405396,444.665985 614.241333,446.607910 
	C602.260193,466.595001 590.259766,486.570709 578.216492,506.520416 
	C557.223022,541.296143 536.201477,576.054871 515.163940,610.803955 
	C514.152344,612.474731 513.551025,614.487305 511.120697,615.924133 
	C492.171051,585.685181 473.240540,555.476685 454.469543,525.522766 
	C455.527557,523.372864 457.012299,523.865173 458.254059,523.855774 
	C464.915527,523.805359 471.591797,524.076538 478.234131,523.711731 
	C482.514282,523.476685 484.985474,525.200439 487.098114,528.675964 
	C493.842957,539.772095 500.783875,550.749329 507.678345,561.754150 
	C508.623566,563.262939 509.734772,564.667664 511.194641,566.718262 
	C525.960693,541.823608 540.355713,517.554504 554.925476,492.964874 
z"/>
<path fill="#000000" opacity="1.000000" stroke="none" 
	d="
M803.896973,315.194794 
	C801.172974,314.816864 798.878967,314.401764 796.566406,314.206360 
	C778.837036,312.708527 761.529846,298.996033 755.873901,280.910583 
	C761.186707,283.847626 765.800293,286.286194 770.991882,287.016724 
	C773.624023,287.387085 776.204346,288.372650 778.832825,288.481354 
	C794.330444,289.122406 804.749329,297.545288 814.076538,309.226166 
	C824.287903,322.014313 832.549500,335.614624 837.768799,351.062866 
	C842.245728,364.313904 845.194824,377.934692 847.335938,391.750275 
	C849.045349,402.780792 849.758423,413.883759 850.085083,425.017639 
	C850.155518,427.419708 850.619690,430.008392 848.573730,432.623260 
	C847.326416,430.416595 847.546936,428.253723 847.715271,426.305481 
	C849.864014,401.444427 835.907104,393.420105 818.509888,389.207916 
	C798.603394,384.388184 782.737976,363.838104 778.920227,342.125885 
	C782.065247,344.319702 784.762146,346.420410 787.665466,348.180450 
	C793.729553,351.856659 800.511414,353.730469 807.363464,355.135925 
	C828.721558,359.516907 839.292175,374.040314 844.293884,393.913696 
	C844.893799,396.297394 845.305786,398.728333 846.205688,401.054077 
	C844.717529,389.645935 844.373108,377.742950 839.402954,367.376801 
	C835.124084,358.452301 826.499512,353.332764 816.515564,351.333618 
	C811.630981,350.355530 806.645264,349.760742 801.860291,348.433807 
	C793.431824,346.096466 786.767822,340.950073 780.944641,334.505219 
	C773.723450,326.513153 769.712769,316.768677 764.291870,306.868134 
	C765.910828,307.080719 766.519531,306.971588 766.805115,307.225708 
	C775.408752,314.882111 785.913574,317.538879 796.950745,319.260834 
	C812.047852,321.616180 822.754883,330.197693 829.492126,343.799286 
	C832.136597,349.138031 834.610779,354.561096 837.656250,359.718170 
	C833.775940,346.641144 830.612549,333.163452 820.824097,322.867126 
	C816.489136,318.307220 810.574463,316.167633 803.896973,315.194794 
z"/>
<path fill="#000000" opacity="1.000000" stroke="none" 
	d="
M172.212143,421.249695 
	C172.582397,426.858215 173.137650,432.002960 173.197922,437.153473 
	C173.260605,442.509888 178.271515,446.017944 177.939270,451.501373 
	C180.250366,448.125549 179.525711,444.461700 179.618332,440.938995 
	C179.874374,431.201233 181.098923,421.685913 185.938171,413.003784 
	C190.512100,404.797638 197.335724,399.018585 206.103485,395.923309 
	C217.819046,391.787415 228.904785,386.732391 238.139191,376.797913 
	C238.758499,381.909912 237.532349,385.856873 236.580719,389.697906 
	C231.767487,409.125641 222.001205,424.704559 202.241638,432.004639 
	C191.299500,436.047180 184.342270,444.174713 180.238113,454.500580 
	C178.876358,457.926605 180.410110,462.602051 180.960739,466.660065 
	C181.446457,470.239685 182.699127,473.715515 182.424927,478.152374 
	C179.390411,474.472260 179.363205,470.461243 178.669586,466.782440 
	C176.592270,455.764984 174.191498,445.027588 166.438553,436.178406 
	C162.643738,431.847015 158.762955,427.737488 153.653473,425.190613 
	C130.198593,413.499359 122.767632,390.774872 129.338806,365.473358 
	C130.549271,360.812592 132.307327,356.292725 133.866043,351.726044 
	C133.999039,351.336395 134.537186,351.085022 134.868362,350.786346 
	C135.248932,350.960205 135.763306,351.064056 135.780380,351.221710 
	C137.155624,363.933716 144.276550,373.331787 153.241913,381.696014 
	C161.343048,389.253937 167.130920,398.293671 170.031937,409.014893 
	C171.070251,412.852173 171.481964,416.859039 172.212143,421.249695 
z"/>
<path fill="#000000" opacity="1.000000" stroke="none" 
	d="
M845.498901,476.287872 
	C841.914612,483.572052 838.618652,490.692139 838.404785,498.440063 
	C838.179626,506.596069 834.932129,513.598083 831.926331,520.787415 
	C831.207153,522.507507 830.102661,524.066467 828.197144,525.196411 
	C829.799255,520.713684 831.606934,516.292053 832.963013,511.736115 
	C836.319092,500.460693 834.295898,490.403931 825.608948,482.070648 
	C822.345764,478.940186 818.629089,476.380066 814.773621,474.068817 
	C798.272766,464.177338 791.333313,448.803284 789.788757,430.426270 
	C789.387573,425.652466 789.728394,420.816284 789.728394,416.215118 
	C791.404846,415.370972 792.004822,416.342743 792.507751,417.135620 
	C797.329651,424.738190 804.580933,429.453308 812.247620,433.590546 
	C824.330994,440.111237 834.401855,448.344788 838.460449,462.225922 
	C840.301147,468.521362 840.565796,474.952057 840.837219,481.322052 
	C847.850586,468.193329 847.133240,452.677490 839.216064,442.928864 
	C835.380859,438.206543 830.143677,435.719666 824.904419,433.171936 
	C800.522217,421.315613 789.888306,405.839294 787.349854,378.402863 
	C788.832825,377.500458 789.464905,378.912842 790.144287,379.619629 
	C797.030029,386.783051 805.646057,391.007690 814.808838,394.335754 
	C835.284424,401.772797 845.771606,416.397400 846.346191,438.159485 
	C846.472900,442.958496 847.096252,447.622711 848.565247,452.326141 
	C849.533936,455.428070 848.571960,459.229950 848.088989,462.664185 
	C847.464539,467.103790 846.455688,471.489349 845.498901,476.287872 
z"/>
<path fill="#000000" opacity="1.000000" stroke="none" 
	d="
M189.237305,374.388000 
	C195.659241,364.608734 204.116608,358.381073 215.312439,355.963898 
	C226.614517,353.523865 237.260864,349.477325 246.860870,341.731201 
	C247.595688,346.199585 245.330124,349.118500 244.196350,352.173218 
	C239.010223,366.146332 230.788773,377.761322 217.320602,385.033997 
	C212.432846,387.673340 207.089127,388.964661 201.812225,390.468384 
	C193.909912,392.720306 187.243118,396.543152 182.514511,403.677185 
	C179.381332,408.404144 178.923126,413.557007 178.267990,418.805847 
	C177.831131,422.305939 178.564575,426.014832 176.196793,429.143951 
	C177.376404,391.813904 182.917084,355.489105 201.514160,322.267700 
	C197.216080,334.502808 191.170944,346.169434 189.007950,359.277161 
	C191.181061,354.788910 193.468079,350.351685 195.506607,345.803101 
	C202.542053,330.104980 214.397614,321.075043 231.532623,318.501678 
	C240.594498,317.140778 249.447189,314.579865 256.793793,308.531891 
	C257.540222,307.917389 258.336731,307.245728 260.303528,307.691162 
	C257.811615,314.073547 255.007843,320.163208 251.285202,325.767334 
	C241.996475,339.750732 229.798080,349.241547 212.352295,350.510895 
	C202.437683,351.232269 195.163574,357.129944 188.096710,363.328186 
	C186.909943,364.369080 186.552338,365.840057 186.134537,367.289734 
	C183.021072,378.093018 181.734421,389.250427 179.759445,400.310669 
	C182.461319,391.611298 184.478745,382.690582 189.237305,374.388000 
z"/>
<path fill="#000000" opacity="1.000000" stroke="none" 
	d="
M680.886414,681.838135 
	C693.344055,674.582092 705.855652,668.664551 719.982910,666.456238 
	C731.794861,664.609863 743.247314,665.127502 754.259521,669.765564 
	C767.996582,675.551208 781.961304,679.165100 796.677063,675.814636 
	C797.884521,677.329041 796.997559,678.119446 796.337463,678.723572 
	C779.704834,693.942627 761.477783,705.460876 737.672119,704.424377 
	C729.645813,704.074890 722.326172,701.787415 715.454651,697.781311 
	C712.290894,695.936829 709.183655,693.979187 705.930054,692.307861 
	C694.821838,686.601929 683.300781,686.254028 671.516296,689.911316 
	C668.884216,690.728149 666.236084,691.493408 663.320007,691.633911 
	C668.391724,687.124146 674.959778,685.419922 680.886414,681.838135 
z"/>
<path fill="#000000" opacity="1.000000" stroke="none" 
	d="
M361.000000,689.000000 
	C361.014862,692.450256 358.794006,690.987732 357.226288,690.641907 
	C352.037689,689.497437 346.887482,688.411865 341.529724,688.008423 
	C331.807831,687.276367 323.046814,689.489136 315.044342,694.916687 
	C295.476807,708.187988 275.379669,707.171997 255.020981,697.054626 
	C246.012115,692.577637 238.310318,686.185669 230.737289,679.664795 
	C229.799393,678.857239 228.402603,678.196777 228.714920,676.413086 
	C230.853195,675.658508 232.936264,676.645325 235.003937,676.852295 
	C246.262039,677.979370 256.812592,675.377014 267.083893,671.141846 
	C289.040649,662.088440 310.264404,664.686279 331.137085,674.869385 
	C340.232697,679.306946 348.822601,684.812439 359.139984,688.113281 
	C360.173676,688.486938 360.586853,688.743469 361.000000,689.000000 
z"/>
<path fill="#000000" opacity="1.000000" stroke="none" 
	d="
M827.184082,649.228210 
	C819.086182,655.683899 811.159729,661.682983 801.459534,664.894775 
	C788.227417,669.275940 775.312805,668.784180 762.573425,663.134033 
	C756.487732,660.434814 750.345398,658.058960 743.616150,657.230103 
	C731.949890,655.793091 721.691345,659.935303 711.487793,664.595276 
	C709.847534,665.344360 708.434631,666.654602 706.081665,666.721130 
	C706.301758,664.424500 708.216125,663.840942 709.614075,663.160828 
	C720.735901,657.750427 730.779114,650.623108 741.035095,643.808899 
	C760.705688,630.739502 781.814575,625.705139 805.065857,632.637390 
	C816.095581,635.925964 827.096191,635.040833 837.929382,631.357971 
	C839.267395,630.903015 840.551392,629.788940 842.745361,631.045837 
	C838.476379,637.837830 833.294067,643.679810 827.184082,649.228210 
z"/>
<path fill="#000000" opacity="1.000000" stroke="none" 
	d="
M288.837708,657.116943 
	C281.049591,656.476440 274.005310,657.797729 267.555481,661.129944 
	C240.148422,675.289246 215.020538,665.161377 196.159225,646.911194 
	C191.311554,642.220581 187.066788,636.984741 182.198654,630.348389 
	C187.469376,631.684570 191.249451,632.711060 195.062378,633.596069 
	C204.574783,635.803894 213.977341,634.542969 223.167313,632.012451 
	C244.371414,626.174072 263.599243,631.139709 281.848511,642.098999 
	C293.675110,649.201233 304.603851,657.763550 317.158325,663.698181 
	C319.139374,664.634644 321.325256,665.678833 322.248840,668.292053 
	C311.576416,663.535828 301.337982,657.615784 288.837708,657.116943 
z"/>
<path fill="#000000" opacity="1.000000" stroke="none" 
	d="
M206.024506,625.173828 
	C188.703445,624.293152 175.489380,616.357971 164.627457,603.948303 
	C158.893066,597.396729 154.417831,589.973816 150.196686,582.402466 
	C149.437683,581.041138 148.339127,579.647461 148.728226,577.723938 
	C149.385635,577.758240 149.963776,577.610107 150.294769,577.831482 
	C161.685303,585.449951 174.398331,586.721008 187.650436,585.969727 
	C208.599457,584.782043 226.545776,591.856079 241.603775,606.344849 
	C250.742203,615.137939 260.311340,623.366211 271.162476,630.016663 
	C272.385620,630.766296 273.867401,631.432861 274.135895,633.503540 
	C272.060028,634.051880 270.857635,632.545044 269.494049,631.605835 
	C254.719589,621.428528 238.876175,617.406799 221.245544,622.919556 
	C216.475433,624.411133 211.529663,625.224976 206.024506,625.173828 
z"/>
<path fill="#000000" opacity="1.000000" stroke="none" 
	d="
M874.061157,578.252869 
	C874.954468,577.809021 875.553894,577.554871 876.295471,577.240417 
	C876.487427,577.822327 876.871582,578.359863 876.735046,578.662598 
	C868.506836,596.908569 857.037781,612.253784 838.193970,620.719910 
	C827.014648,625.742493 815.336914,627.018799 803.629211,623.038513 
	C786.034241,617.056580 770.607544,621.706726 756.040833,631.706360 
	C755.359558,632.174011 754.658752,632.624573 753.922424,632.994141 
	C753.694458,633.108643 753.318665,632.928711 752.500061,632.808899 
	C753.823364,629.965820 756.219666,628.482483 758.559631,627.183167 
	C767.104431,622.438538 774.499817,616.247131 781.055786,609.112366 
	C796.209839,592.620422 814.827820,584.717957 837.207764,585.987244 
	C850.096375,586.718323 862.491089,585.372070 874.061157,578.252869 
z"/>
<path fill="#000000" opacity="1.000000" stroke="none" 
	d="
M361.333801,689.099304 
	C360.586853,688.743469 360.173676,688.486938 359.535187,688.159058 
	C348.741821,679.425781 336.805237,672.674744 326.011780,664.347595 
	C312.898254,654.230530 301.847595,642.529358 297.470245,625.797668 
	C295.372284,617.778625 296.039429,609.999939 298.043976,602.188904 
	C300.553894,592.408447 300.452271,582.790466 296.600555,573.338379 
	C296.303406,572.609192 296.182953,571.808044 295.899750,570.734741 
	C296.653259,570.734741 297.196106,570.562134 297.493225,570.759521 
	C310.950775,579.698242 322.953522,590.028137 330.182587,604.938538 
	C334.584442,614.017700 336.795349,623.737000 334.966736,633.538208 
	C330.701630,656.398682 339.335449,672.478516 358.682373,684.273560 
	C366.165833,688.835938 374.083618,692.586426 381.968689,697.251831 
	C378.128235,698.066406 371.876831,695.480103 361.333801,689.099304 
z"/>
<path fill="#000000" opacity="1.000000" stroke="none" 
	d="
M710.399231,655.403442 
	C699.300903,665.911316 686.678711,673.744568 674.052002,681.462158 
	C666.540283,686.053406 660.459717,692.807739 651.947693,695.833618 
	C650.092163,696.493225 648.368042,697.534180 646.176025,697.596741 
	C645.788086,695.923462 647.208923,695.639404 648.085205,695.227356 
	C658.095642,690.522095 666.987732,684.032166 675.813232,677.518860 
	C688.318420,668.290039 693.266724,655.505920 691.203918,640.297424 
	C689.536621,628.004822 689.597534,616.097229 695.289307,604.749084 
	C702.529236,590.314270 714.137268,579.973572 727.121338,570.944336 
	C727.472168,570.700317 728.067627,570.808167 728.566223,570.749878 
	C729.771973,572.709290 728.461670,574.362366 727.960144,576.008301 
	C725.574646,583.836914 724.829956,592.077759 726.932434,599.700684 
	C733.033020,621.818542 725.845093,639.541077 710.399231,655.403442 
z"/>
<path fill="#000000" opacity="1.000000" stroke="none" 
	d="
M829.096680,577.244812 
	C817.476990,576.739197 808.143677,581.701294 799.198853,587.777527 
	C798.815674,586.794983 798.522827,586.343750 798.616028,586.240417 
	C806.653931,577.321167 813.132446,567.186890 820.681091,557.897278 
	C832.274170,543.630310 847.899597,536.999207 865.768738,534.916626 
	C877.608276,533.536804 887.781738,528.760315 896.116577,520.170349 
	C896.531982,519.742188 897.127075,519.488281 897.534668,519.221252 
	C898.724670,519.944580 898.490540,520.849365 898.301025,521.594482 
	C893.912842,538.855042 886.892578,554.610901 872.791321,566.353638 
	C862.848083,574.633850 851.469543,578.341187 838.561340,577.476135 
	C835.572876,577.275940 832.568359,577.314514 829.096680,577.244812 
z"/>
<path fill="#000000" opacity="1.000000" stroke="none" 
	d="
M179.756500,540.067993 
	C193.315308,545.085999 202.639725,554.637939 210.994720,565.478943 
	C217.019043,573.295776 222.305450,581.699280 230.157364,588.593933 
	C227.326599,589.438416 226.226379,587.877319 225.013641,586.948853 
	C215.344452,579.546265 204.559296,576.073792 192.336075,577.172424 
	C181.060822,578.185913 170.083633,577.565308 159.934311,571.588440 
	C144.203674,562.324768 135.906952,547.590393 129.816315,531.213562 
	C128.388657,527.374878 127.461693,523.349915 126.292763,519.371094 
	C127.086792,519.194580 127.551216,518.974609 127.652214,519.085510 
	C137.407516,529.798584 150.098907,534.044800 163.989960,535.836609 
	C169.274918,536.518311 174.460907,537.814026 179.756500,540.067993 
z"/>
<path fill="#000000" opacity="1.000000" stroke="none" 
	d="
M771.450623,595.104065 
	C769.723145,604.854248 765.131653,612.842163 758.981384,619.690979 
	C748.378540,631.498047 736.181396,641.608215 723.203552,650.743286 
	C721.938538,651.633789 720.723938,652.932800 718.716125,652.662720 
	C719.814270,650.033813 722.242065,649.057434 724.185181,647.614197 
	C733.553955,640.655884 739.832397,631.858093 741.204834,619.960205 
	C741.811829,614.698242 741.081360,609.496460 739.206970,604.774719 
	C729.412292,580.100220 736.935425,559.206543 752.697937,539.951538 
	C754.382019,537.894348 756.138306,535.895447 757.899780,533.903687 
	C758.054138,533.729126 758.498169,533.810791 759.525757,533.686890 
	C757.529785,548.812317 765.396057,561.231567 770.318298,574.504761 
	C772.744568,581.047363 773.020874,587.839294 771.450623,595.104065 
z"/>
<path fill="#000000" opacity="1.000000" stroke="none" 
	d="
M129.772156,472.258911 
	C135.995987,477.636414 143.421509,479.846832 150.558273,482.513641 
	C167.105682,488.696930 179.197800,499.767761 187.209091,515.347961 
	C191.771957,524.221741 196.005844,533.264893 200.359955,542.245300 
	C200.618317,542.778198 200.627670,543.431885 200.739395,543.964844 
	C199.506180,544.599243 198.885803,543.932739 198.408173,543.319946 
	C190.493378,533.166077 179.470779,528.820129 167.245468,527.461304 
	C143.900421,524.866516 130.186432,511.099487 122.682549,489.970306 
	C118.885033,479.277405 117.264030,467.077423 118.298729,458.862671 
	C122.299095,463.764740 125.182648,468.584015 129.772156,472.258911 
z"/>
<path fill="#000000" opacity="1.000000" stroke="none" 
	d="
M285.243408,624.714966 
	C287.628204,636.005127 295.847229,642.716614 303.666260,649.849548 
	C301.688141,650.981079 300.789520,649.927185 299.969635,649.281860 
	C286.879669,638.979126 273.792419,628.663025 263.605133,615.259033 
	C252.205124,600.259521 249.938080,584.221802 258.271667,567.049927 
	C263.322845,556.641602 267.466919,546.029663 265.849915,534.328857 
	C267.882843,533.522278 268.588440,534.666626 269.293152,535.493713 
	C280.723083,548.907043 289.671783,563.447144 290.623871,581.731445 
	C290.995972,588.876953 289.169312,595.550232 287.081909,602.239441 
	C284.835205,609.439087 283.214569,616.726257 285.243408,624.714966 
z"/>
<path fill="#000000" opacity="1.000000" stroke="none" 
	d="
M850.104248,499.116425 
	C855.823792,493.164551 861.969971,488.401978 869.391602,485.507599 
	C883.494080,480.007751 898.216125,475.464172 905.550720,460.730652 
	C907.355530,461.139801 907.357056,462.034485 907.340332,462.834991 
	C907.022095,478.065979 903.781799,492.542847 895.523499,505.525421 
	C888.203613,517.032715 877.933289,524.679932 864.196350,526.387451 
	C848.212158,528.374390 833.601501,532.738281 823.304993,547.140442 
	C822.173279,544.495728 823.481018,543.373413 824.286438,542.489685 
	C830.240601,535.956787 833.429688,527.877991 837.043213,520.041077 
	C840.466553,512.616699 844.148071,505.370087 850.104248,499.116425 
z"/>
<path fill="#000000" opacity="1.000000" stroke="none" 
	d="
M787.147949,593.121826 
	C781.173401,602.307373 774.389282,610.279236 766.392273,617.153748 
	C766.059387,616.868835 765.726501,616.583984 765.393677,616.299133 
	C767.716248,613.598450 769.926819,610.791199 772.379700,608.214600 
	C787.587769,592.239197 789.007629,580.849487 776.561584,562.888855 
	C760.782410,540.118225 763.551025,517.538818 775.791138,494.664856 
	C775.995422,494.282959 776.491577,494.057159 776.955566,493.672058 
	C777.363159,494.048767 777.959290,494.329956 778.000000,494.676453 
	C779.231323,505.155212 785.149841,513.248352 791.762512,520.790955 
	C808.592590,539.987915 807.326477,558.091125 795.488525,580.266541 
	C793.145264,584.655945 790.665283,589.030945 787.147949,593.121826 
z"/>
<path fill="#000000" opacity="1.000000" stroke="none" 
	d="
M244.084869,596.795715 
	C246.326782,600.279663 248.394562,603.430298 250.447479,606.558228 
	C249.443405,607.322388 248.940002,606.739746 248.544144,606.290833 
	C236.772415,592.943054 226.860077,578.541626 222.354858,560.965637 
	C218.651108,546.516418 222.250504,534.059143 232.027191,523.079834 
	C239.586212,514.590942 246.352493,505.622009 248.011688,492.521057 
	C254.321335,502.663757 257.524597,512.302429 259.328247,522.491028 
	C261.745941,536.148315 258.695007,548.552612 250.931747,559.917908 
	C249.899902,561.428528 249.050568,563.070374 247.954041,564.529236 
	C240.522995,574.415405 238.983734,585.023376 244.084869,596.795715 
z"/>
<path fill="#000000" opacity="1.000000" stroke="none" 
	d="
M154.030899,475.027771 
	C120.220810,463.878632 114.410797,431.035461 121.351517,404.009857 
	C123.068123,404.520111 123.297028,406.193634 123.919922,407.456055 
	C128.901001,417.551453 137.225449,424.383392 146.404297,430.267365 
	C158.909805,438.283966 167.823746,449.104309 172.602921,463.158600 
	C176.269531,473.941071 179.596161,484.839203 182.474869,496.218781 
	C175.254013,486.108398 165.770462,479.343475 154.030899,475.027771 
z"/>
<path fill="#000000" opacity="1.000000" stroke="none" 
	d="
M859.905273,449.006897 
	C865.696045,440.156464 873.449646,433.919922 882.011047,428.650269 
	C891.216003,422.984467 898.195007,415.457397 902.506592,405.506714 
	C902.748962,404.947479 903.164734,404.463348 903.554688,403.859161 
	C906.103882,405.664825 905.321106,408.293610 905.588074,410.428253 
	C906.999268,421.714447 907.121826,432.947968 903.807922,444.028229 
	C899.332581,458.991638 889.714783,469.248138 875.123657,474.303131 
	C863.716187,478.255157 853.213501,483.087097 846.170288,493.434235 
	C845.940430,493.771820 845.338989,493.856506 843.379028,494.783752 
	C849.891479,479.104370 850.803772,462.878601 859.905273,449.006897 
z"/>
<path fill="#000000" opacity="1.000000" stroke="none" 
	d="
M230.844147,512.802124 
	C226.631577,517.091492 222.529907,520.999695 218.682678,525.144226 
	C210.572021,533.881592 208.719162,545.925171 214.022644,556.610413 
	C216.930084,562.468140 220.375458,568.058960 223.260269,573.983032 
	C220.083572,572.419312 218.849396,569.240662 217.187988,566.550476 
	C207.546158,550.937805 200.874878,534.345276 199.473358,515.743652 
	C198.437576,501.996277 203.368164,491.061310 213.098282,481.909912 
	C216.487717,478.722076 220.215561,475.897247 223.700775,472.807281 
	C229.962830,467.255310 235.102203,460.835388 238.159073,452.361084 
	C245.728745,469.097443 246.211243,496.235199 230.844147,512.802124 
z"/>
<path fill="#000000" opacity="1.000000" stroke="none" 
	d="
M807.816406,563.861572 
	C813.831909,555.595337 815.930298,546.849060 813.656189,537.155029 
	C811.840759,529.416199 806.693665,523.937378 800.931641,519.072266 
	C784.920349,505.553528 780.982422,487.882629 783.113525,468.129822 
	C783.673645,462.938538 784.389709,457.682678 786.576782,452.847473 
	C787.200439,452.965027 787.734863,452.941589 787.791016,453.094116 
	C792.320923,465.407623 802.113647,473.320557 811.598999,481.439758 
	C826.598816,494.279144 829.335754,510.609070 824.509644,528.614258 
	C820.058350,545.221191 813.933960,561.230469 803.221191,575.045654 
	C802.640137,575.794983 801.970825,576.475891 801.342590,577.188660 
	C800.953491,576.948120 800.564392,576.707581 800.175354,576.467041 
	C802.660950,572.370056 805.146606,568.273132 807.816406,563.861572 
z"/>
<path fill="#000000" opacity="1.000000" stroke="none" 
	d="
M213.886200,471.948883 
	C209.770126,474.826965 205.759735,477.266388 202.161255,480.209442 
	C192.567886,488.055420 189.354187,499.358978 193.021194,511.205872 
	C193.947845,514.199585 194.830933,517.206787 195.291779,520.393799 
	C192.099030,515.539307 189.685074,510.302582 188.670197,504.545715 
	C186.880951,494.396332 185.461792,484.230499 185.491852,473.842773 
	C185.543930,455.859955 194.813034,443.881165 209.478348,435.095276 
	C215.750916,431.337402 222.415451,428.208038 227.754745,422.988861 
	C230.253922,420.545898 232.176895,417.659760 234.355392,414.852509 
	C242.349121,426.748230 230.290527,460.262543 213.886200,471.948883 
z"/>
<path fill="#000000" opacity="1.000000" stroke="none" 
	d="
M873.730835,380.731262 
	C882.531433,372.710815 888.891296,363.655792 890.231140,350.761719 
	C893.267944,353.826721 893.604736,356.874451 894.490601,359.517731 
	C899.726318,375.139648 900.958008,390.752838 893.105164,405.953186 
	C889.686890,412.569794 884.655334,417.900787 878.099854,421.560730 
	C867.897522,427.256653 858.894775,434.118256 853.878662,445.126556 
	C853.709229,445.498383 853.132324,445.684479 852.376526,446.217041 
	C850.909180,443.422729 852.555908,440.942108 852.716919,438.501678 
	C853.175903,431.548309 853.865479,424.610321 854.444214,417.664642 
	C855.684082,402.784668 862.590942,390.851624 873.730835,380.731262 
z"/>
<path fill="#000000" opacity="1.000000" stroke="none" 
	d="
M218.720413,253.111053 
	C220.850281,242.816360 226.232590,235.025955 233.952820,228.720108 
	C242.363739,221.850128 251.813721,216.949829 262.235565,213.134354 
	C262.288269,215.543320 260.918823,216.446548 260.002563,217.518051 
	C252.265472,226.566177 247.345398,237.045395 244.493713,248.490356 
	C242.463577,256.638184 238.685318,263.597778 232.563354,269.398468 
	C227.302948,274.382812 224.138031,280.762390 220.791351,288.432953 
	C224.984329,286.096466 227.265717,283.296448 229.653900,280.732483 
	C237.089828,272.749176 245.815979,267.434479 256.987915,266.968536 
	C263.971649,266.677216 270.283936,264.201630 276.492615,261.281311 
	C277.606842,260.757233 278.602722,259.519409 280.544373,260.501556 
	C278.322388,266.970337 274.047852,271.939850 268.779175,275.949402 
	C262.016968,281.095520 254.233704,284.463348 245.686462,284.197113 
	C237.162399,283.931671 229.682190,286.511688 222.273071,290.078461 
	C220.333954,291.011932 219.292465,292.650543 218.149414,294.281799 
	C216.553558,296.559296 214.927521,298.815643 212.920639,300.858704 
	C213.110077,297.988953 214.522369,295.661102 216.150620,293.509796 
	C221.638748,286.258789 221.719452,277.990845 220.038635,269.752838 
	C218.931931,264.328705 217.714554,259.065826 218.720413,253.111053 
z"/>
<path fill="#000000" opacity="1.000000" stroke="none" 
	d="
M485.330322,372.357544 
	C487.439087,367.039398 490.897644,365.374908 496.345062,365.606018 
	C507.141113,366.064056 517.972961,365.877075 528.784363,365.666382 
	C532.513123,365.593750 534.763367,366.605286 536.705139,370.046173 
	C542.752014,380.761353 549.154297,391.281311 555.634521,401.743286 
	C557.626038,404.958374 557.849304,407.544220 555.752930,410.853180 
	C549.344788,420.967896 543.151184,431.222198 537.065491,441.535156 
	C535.424805,444.315430 533.503906,445.408813 530.265259,445.367584 
	C517.787903,445.208649 505.307037,445.278015 492.827911,445.343414 
	C490.353607,445.356384 488.459625,445.002411 487.032379,442.536255 
	C480.701233,431.596649 474.266083,420.714203 467.664490,409.936066 
	C465.738770,406.792084 465.985535,404.369476 467.903046,401.307953 
	C473.815277,391.868378 479.414307,382.232605 485.330322,372.357544 
M526.116638,438.025299 
	C528.606201,438.218628 530.623291,437.627350 532.033875,435.268585 
	C537.326660,426.418243 542.664185,417.593109 548.122192,408.844177 
	C549.365051,406.851837 549.243591,405.404083 548.047974,403.435394 
	C542.606873,394.476288 537.276001,385.447937 532.064819,376.353180 
	C530.742554,374.045563 529.151367,373.025452 526.505371,373.050049 
	C516.685486,373.141388 506.864014,373.136139 497.043823,373.070221 
	C494.796204,373.055145 493.338257,373.839111 492.197449,375.809265 
	C486.864105,385.019623 481.501099,394.214905 475.973969,403.309387 
	C474.649780,405.488281 474.728149,407.216339 475.964081,409.269470 
	C481.284302,418.107422 486.563599,426.970306 491.802368,435.856812 
	C492.843628,437.623138 494.086395,438.286743 496.240936,438.241394 
	C505.890411,438.038330 515.544922,438.074524 526.116638,438.025299 
z"/>
<path fill="#000000" opacity="1.000000" stroke="none" 
	d="
M747.676758,266.245575 
	C746.682556,264.211426 744.958374,262.839691 745.441528,260.177887 
	C752.195190,263.201782 758.675598,266.876617 766.055237,266.990295 
	C779.577759,267.198639 789.830383,273.391968 798.272156,283.408905 
	C799.524109,284.894562 801.025146,286.252594 803.526855,286.906952 
	C801.468567,279.953430 797.896790,274.213470 793.272095,269.274384 
	C787.553955,263.167511 783.477783,256.317841 781.405701,248.220108 
	C778.297791,236.074173 772.863159,225.163635 764.079834,216.060318 
	C763.533691,215.494263 762.784607,214.943863 763.197876,213.049255 
	C769.995850,215.695374 776.633606,218.407272 782.726196,222.177887 
	C793.703979,228.971893 803.055359,237.309402 806.542847,250.449036 
	C807.933472,255.688492 808.092041,261.105286 806.323608,266.202637 
	C802.917358,276.021179 804.140808,285.102600 809.518066,293.813538 
	C810.017029,294.621857 810.632507,295.473328 809.945435,297.288574 
	C806.776611,292.786377 803.125061,289.398285 798.194153,287.569519 
	C793.643799,285.881805 789.106323,284.077728 784.192139,284.363678 
	C772.948303,285.018005 763.432739,280.606812 754.375854,274.664276 
	C751.326904,272.663727 749.860535,269.397919 747.676758,266.245575 
z"/>
<path fill="#000000" opacity="1.000000" stroke="none" 
	d="
M876.745911,317.346252 
	C882.243774,328.041168 884.322754,339.115753 883.185547,350.609344 
	C882.107422,361.505737 875.902405,369.810577 867.791382,376.624573 
	C861.150391,382.203552 855.610413,388.429199 852.705261,396.734375 
	C852.439392,397.494263 852.022339,398.271179 850.977112,398.216248 
	C850.204895,398.022186 849.888611,397.392212 849.908813,396.729828 
	C850.199768,387.202576 848.181458,377.857208 847.707214,368.391815 
	C847.165344,357.576721 850.678589,348.113281 857.230286,339.644196 
	C859.370972,336.877106 861.421753,334.040680 863.550842,331.264465 
	C868.637207,324.632050 870.349976,316.978149 869.954224,308.194611 
	C874.283264,310.181061 874.721680,314.125824 876.745911,317.346252 
z"/>
<path fill="#000000" opacity="1.000000" stroke="none" 
	d="
M143.053162,350.432831 
	C141.375702,334.347473 145.799896,320.431732 154.227341,307.687744 
	C155.902847,308.129425 156.016037,308.836945 155.975693,309.479431 
	C155.403809,318.588257 158.234009,326.685181 164.149338,333.412079 
	C177.042694,348.074432 180.174728,365.064636 176.925293,383.708282 
	C175.955200,389.274139 176.617294,394.931946 176.062180,400.351898 
	C174.813446,400.711884 174.307907,400.221252 174.150299,399.574127 
	C171.710098,389.553955 165.390366,382.168793 157.840714,375.663391 
	C150.144394,369.031616 144.918762,360.987457 143.053162,350.432831 
z"/>
<path fill="#000000" opacity="1.000000" stroke="none" 
	d="
M862.800293,317.434509 
	C861.688416,322.680817 859.312500,326.840912 856.200317,330.607056 
	C850.275513,337.776825 843.845642,344.645447 842.617004,354.495117 
	C842.571411,354.860565 841.945740,355.153625 841.240601,355.802155 
	C838.597595,349.991272 837.865417,343.869141 836.132690,338.056396 
	C831.696960,323.175690 832.613525,309.017059 840.575562,295.281921 
	C844.614685,288.314087 845.118652,280.433319 842.878174,272.525787 
	C842.584412,271.488831 841.828430,270.391632 842.544739,269.202972 
	C854.426697,274.742249 865.322571,300.344604 862.800293,317.434509 
z"/>
<path fill="#000000" opacity="1.000000" stroke="none" 
	d="
M170.311005,283.414612 
	C173.887939,277.629059 177.534271,272.384491 182.554459,268.335327 
	C184.284241,269.691071 183.368484,270.844177 183.127365,271.846680 
	C181.069534,280.402618 181.454742,288.747009 185.811325,296.516205 
	C193.074997,309.469696 193.916016,322.950745 189.957962,337.033569 
	C188.184540,343.343384 186.756134,349.750214 185.185867,356.053986 
	C183.553329,355.748383 183.062073,355.024872 183.002579,354.200958 
	C182.443207,346.454407 178.428452,340.154816 173.495560,334.817993 
	C158.334030,318.414825 160.874786,299.712830 170.311005,283.414612 
z"/>
<path fill="#000000" opacity="1.000000" stroke="none" 
	d="
M821.660706,248.340988 
	C828.166870,254.774414 832.694885,262.049957 835.795593,270.271484 
	C839.061768,278.931793 838.330444,287.182220 833.684692,295.161804 
	C830.057861,301.391357 826.953857,307.782440 827.269653,315.313934 
	C827.347717,317.176575 828.596680,319.043884 827.679016,321.035553 
	C827.083618,320.859558 826.577942,320.852966 826.499573,320.666656 
	C820.370056,306.094360 810.572998,292.714844 811.693176,275.774353 
	C811.911804,272.468262 812.423889,269.173553 812.947693,265.897125 
	C814.560791,255.806427 814.050903,252.926605 807.351501,237.254974 
	C813.454529,239.968613 816.971436,244.669067 821.660706,248.340988 
z"/>
<path fill="#000000" opacity="1.000000" stroke="none" 
	d="
M212.351639,255.477264 
	C211.999924,260.427765 212.146194,264.877716 213.242401,269.306091 
	C215.714661,279.293304 213.988983,288.833099 209.591003,297.923492 
	C205.998001,305.350037 202.628159,312.865448 200.198318,320.806366 
	C199.788498,320.726776 199.378677,320.647217 198.968857,320.567627 
	C198.803146,317.532623 198.981506,314.429596 198.397705,311.477264 
	C197.296844,305.910156 195.413040,300.574432 192.381912,295.691803 
	C187.589676,287.972351 187.033356,279.780090 189.790359,271.231384 
	C194.233871,257.453339 203.390442,247.391571 214.962265,239.235001 
	C215.584534,238.796387 216.405472,238.639648 218.020309,238.001312 
	C215.900436,244.162079 213.041382,249.272110 212.351639,255.477264 
z"/>
<path fill="#000000" opacity="1.000000" stroke="none" 
	d="
M757.739380,259.516296 
	C750.834839,255.374496 745.755066,249.920944 741.955139,243.340103 
	C737.060425,234.863495 732.173157,226.402802 725.605164,218.725479 
	C738.534180,222.098953 750.035339,228.167297 761.463623,234.645493 
	C774.106934,241.812393 777.260559,255.478119 784.446411,266.976257 
	C776.413269,261.331085 766.365295,264.025818 757.739380,259.516296 
z"/>
<path fill="#000000" opacity="1.000000" stroke="none" 
	d="
M244.029770,265.354004 
	C241.700058,265.891083 241.487808,264.938843 242.679764,263.734833 
	C245.607529,260.777374 246.864410,256.975891 248.313370,253.272537 
	C251.200363,245.893784 256.070892,240.221603 262.599152,235.785965 
	C274.091705,227.977325 286.668274,222.520706 300.027649,217.717636 
	C300.570526,220.091324 299.175446,221.228500 298.183502,222.342438 
	C292.837799,228.345917 288.616486,235.090271 284.689972,242.067474 
	C280.971069,248.675797 276.230408,254.359329 269.531952,258.268433 
	C265.419281,260.668518 261.195435,262.332611 256.364380,262.319458 
	C252.131165,262.307892 248.175018,263.582489 244.029770,265.354004 
z"/>
<path fill="#000000" opacity="1.000000" stroke="none" 
	d="
M205.263153,318.970490 
	C208.884033,312.380280 213.338806,306.801788 217.960938,301.338318 
	C223.102310,295.261078 229.593781,291.366486 237.387283,290.041931 
	C248.302658,288.186798 259.424316,287.292877 269.682068,281.973663 
	C267.540771,289.475403 263.220612,295.318726 257.879974,300.489105 
	C248.655792,309.419250 237.755081,314.149261 224.768723,314.516632 
	C217.208618,314.730530 210.483643,318.116364 204.545197,322.807556 
	C203.294098,320.931702 204.606781,320.203308 205.263153,318.970490 
z"/>
<path fill="#000000" opacity="1.000000" stroke="none" 
	d="
M609.875488,471.909149 
	C613.845642,465.413422 617.630554,459.228149 621.847778,452.336548 
	C629.065369,462.532959 634.695435,472.757965 641.013855,483.516937 
	C627.870728,483.516937 615.655762,483.516937 602.964111,483.516937 
	C604.730591,478.838959 607.598755,475.757172 609.875488,471.909149 
z"/>
<path fill="#000000" opacity="1.000000" stroke="none" 
	d="
M400.000763,329.721619 
	C406.282501,329.721710 412.065186,329.721710 419.123260,329.721710 
	C412.857239,340.764984 407.118256,350.879425 400.764343,362.077606 
	C393.786377,351.009460 387.407654,340.891815 380.365265,329.721497 
	C387.405212,329.721497 393.453461,329.721497 400.000763,329.721619 
z"/>
<path fill="#000000" opacity="1.000000" stroke="none" 
	d="
M626.319336,357.216064 
	C625.136230,358.795990 624.814087,360.617523 622.448669,361.615540 
	C616.399536,351.825317 610.305176,341.961853 603.749512,331.351837 
	C616.779053,331.351837 628.891357,331.351837 642.189636,331.351837 
	C636.644409,340.377747 631.568237,348.640259 626.319336,357.216064 
z"/>
<path fill="#000000" opacity="1.000000" stroke="none" 
	d="
M412.264160,474.777832 
	C413.369293,477.006989 415.110870,478.505554 415.508179,481.475250 
	C404.478943,481.475250 393.578217,481.475250 381.743866,481.475250 
	C387.540619,472.027527 393.087036,462.987823 399.103424,453.182098 
	C403.719849,460.756958 407.897980,467.612701 412.264160,474.777832 
z"/>
<path fill="#000000" opacity="1.000000" stroke="none" 
	d="
M521.505127,279.522644 
	C522.890625,282.125916 524.882690,284.032104 525.357727,287.603607 
	C516.567322,288.422363 508.027557,287.986176 498.605103,287.838593 
	C502.481903,279.076599 507.084534,272.266022 511.622467,264.478912 
	C515.996399,269.119934 518.188782,274.498566 521.505127,279.522644 
z"/>
<path fill="#000000" opacity="1.000000" stroke="none" 
	d="
M510.710419,547.072632 
	C506.612000,540.257507 502.744415,533.706909 498.371063,526.299622 
	C507.316376,526.299622 515.419861,526.299622 524.399841,526.299622 
	C521.642822,532.755371 517.945557,538.384338 514.489624,544.116638 
	C513.683716,545.453430 513.684021,548.013062 510.710419,547.072632 
z"/>
</svg>